<svg width="205" height="211" viewBox="0 0 205 211" fill="none" xmlns="http://www.w3.org/2000/svg">
<circle cx="102.5" cy="108.5" r="102.5" fill="#FF2E2E"/>
<g clip-path="url(#clip0_1_34)">
<path fill-rule="evenodd" clip-rule="evenodd" d="M101.52 147.065C102.204 146.729 103.108 146.571 104.09 146.571C105.07 146.571 105.975 146.729 106.659 147.065C107.856 147.654 109.238 147.744 110.501 147.315C111.764 146.885 112.805 145.972 113.395 144.776C113.984 143.579 114.074 142.197 113.645 140.934C113.216 139.67 112.302 138.629 111.106 138.039C109.231 137.115 106.781 136.509 104.09 136.509C101.398 136.509 98.9485 137.115 97.0735 138.039C95.8769 138.629 94.9636 139.67 94.5342 140.934C94.1048 142.197 94.1944 143.579 94.7834 144.776C95.3737 145.972 96.4149 146.885 97.6781 147.315C98.9413 147.744 100.323 147.654 101.52 147.065ZM79.4574 121.67C86.0274 116.857 94.6568 113.971 104.09 113.971C113.521 113.971 122.152 116.857 128.721 121.67C129.798 122.458 131.143 122.786 132.461 122.583C133.78 122.379 134.964 121.661 135.753 120.585C136.541 119.508 136.87 118.163 136.666 116.844C136.463 115.526 135.744 114.342 134.668 113.553C126.506 107.573 115.808 103.909 104.09 103.909C92.3701 103.909 81.6728 107.573 73.5105 113.553C72.4346 114.342 71.7161 115.526 71.5126 116.844C71.3091 118.163 71.6375 119.508 72.4254 120.585C73.2144 121.661 74.3983 122.379 75.7168 122.583C77.0354 122.786 78.3808 122.458 79.4574 121.67ZM54.9519 95.7019C68.0625 84.1577 85.2643 77.1517 104.09 77.1517C122.915 77.1517 140.116 84.1577 153.227 95.7019C154.229 96.5832 155.54 97.0306 156.871 96.9458C158.203 96.8611 159.446 96.2511 160.328 95.2499C161.209 94.2483 161.657 92.9377 161.572 91.6062C161.488 90.2747 160.878 89.0312 159.877 88.1492C144.991 75.0428 125.462 67.0892 104.09 67.0892C82.7168 67.0892 63.1872 75.0428 48.3022 88.1492C47.301 89.0311 46.691 90.2746 46.6064 91.6062C46.5218 92.9377 46.9695 94.2484 47.8511 95.2499C48.733 96.2511 49.9764 96.8611 51.3079 96.9458C52.6394 97.0306 53.9501 96.5832 54.9519 95.7019Z" fill="white"/>
</g>
<defs>
<clipPath id="clip0_1_34">
<rect width="161" height="161" fill="white" transform="translate(14)"/>
</clipPath>
</defs>
</svg>
