<svg width="560" height="625" viewBox="0 0 560 625" fill="none" xmlns="http://www.w3.org/2000/svg">
    <circle cx="280" cy="312" r="256" fill="#FF0000"/>
    <path d="M156.169 408.661C154.79 408.661 153.617 408.178 152.651 407.212C151.685 406.247 151.203 405.074 151.203 403.694V269.802C151.203 268.422 151.685 267.25 152.651 266.284C153.617 265.318 154.79 264.835 156.169 264.835H172.518C173.897 264.835 175.07 265.318 176.036 266.284C177.001 267.25 177.484 268.422 177.484 269.802V403.694C177.484 405.074 177.001 406.247 176.036 407.212C175.07 408.178 173.897 408.661 172.518 408.661H156.169ZM258.947 383C257.568 383 256.464 382.517 255.636 381.551C254.808 380.586 254.256 379.413 253.981 378.033L241.564 315.123C240.322 308.776 238.874 303.534 237.218 299.395C235.563 295.256 233.286 292.152 230.389 290.083C227.63 287.875 223.836 286.771 219.007 286.771H211.764C210.247 286.771 209.005 286.289 208.039 285.323C207.211 284.357 206.797 283.184 206.797 281.805V268.974C206.797 267.595 207.211 266.422 208.039 265.456C209.005 264.491 210.247 264.008 211.764 264.008H219.421C229.768 264.008 238.115 265.801 244.461 269.388C250.945 272.975 255.981 278.494 259.568 285.944C263.293 293.256 266.328 302.637 268.673 314.088L281.09 378.033C281.366 379.413 280.952 380.586 279.848 381.551C278.883 382.517 277.641 383 276.123 383H258.947ZM235.356 372.653C229.975 375.964 225.008 378.585 220.456 380.517C216.041 382.31 211.419 383.69 206.591 384.656C205.211 384.794 204.038 384.656 203.072 384.242C202.107 383.828 201.624 382.931 201.624 381.551V365.617C201.624 363.271 203.072 361.547 205.97 360.443C206.935 360.029 208.729 359.408 211.35 358.581C214.109 357.753 217.007 356.787 220.042 355.684C223.077 354.442 225.698 353.2 227.906 351.959C231.217 350.165 234.39 347.751 237.425 344.716C240.598 341.542 243.288 338.231 245.496 334.782C247.703 331.333 249.014 328.091 249.428 325.056L261.43 324.435C261.017 331.609 259.637 338.3 257.292 344.509C255.084 350.717 252.049 356.235 248.186 361.064C244.323 365.755 240.046 369.618 235.356 372.653ZM359.287 287.392L303.826 287.599C302.447 287.599 301.274 287.116 300.308 286.151C299.343 285.185 298.86 284.012 298.86 282.633V269.802C298.86 268.422 299.343 267.25 300.308 266.284C301.274 265.318 302.447 264.835 303.826 264.835H362.805C371.635 264.835 379.568 266.767 386.604 270.63C393.64 274.355 399.089 279.942 402.952 287.392C406.953 294.842 408.953 304.155 408.953 315.33V378.033C408.953 379.413 408.471 380.586 407.505 381.551C406.677 382.517 405.504 383 403.987 383H349.354C347.836 383 346.595 382.517 345.629 381.551C344.801 380.586 344.387 379.413 344.387 378.033V366.031C344.387 364.651 344.801 363.478 345.629 362.513C346.595 361.547 347.836 361.064 349.354 361.064H382.879V316.778C382.879 310.708 381.844 305.465 379.774 301.051C377.705 296.636 374.877 293.256 371.29 290.91C367.703 288.565 363.702 287.392 359.287 287.392ZM301.964 383C300.722 383 299.618 382.517 298.653 381.551C297.687 380.586 297.342 379.344 297.618 377.826L317.278 281.184C317.554 279.666 318.174 278.494 319.14 277.666C320.106 276.838 321.279 276.493 322.658 276.631L336.523 277.045C338.041 277.183 339.214 277.804 340.041 278.908C341.007 280.011 341.352 281.253 341.076 282.633L323.279 377.826C323.279 379.344 322.727 380.586 321.623 381.551C320.52 382.517 319.278 383 317.898 383H301.964Z" fill="white"/>
    </svg>
    